<mxfile host="app.diagrams.net" modified="2022-03-28T19:17:26.933Z" agent="5.0 (Windows NT 10.0; Win64; x64) AppleWebKit/537.36 (KHTML, like Gecko) Chrome/99.0.4844.82 Safari/537.36" etag="BoN_d8DoEC2Y_yVwMzYM" version="17.2.4" type="github">
  <diagram id="4pSrcQGrNbFscnBN9wkS" name="Page-1">
    <mxGraphModel dx="782" dy="468" grid="1" gridSize="10" guides="1" tooltips="1" connect="1" arrows="1" fold="1" page="1" pageScale="1" pageWidth="827" pageHeight="1169" math="0" shadow="0">
      <root>
        <mxCell id="0" />
        <mxCell id="1" parent="0" />
        <mxCell id="iV2o82dDPxmSXg62BO_7-1" value="inicio" style="ellipse;whiteSpace=wrap;html=1;" vertex="1" parent="1">
          <mxGeometry x="330" y="50" width="120" height="80" as="geometry" />
        </mxCell>
        <mxCell id="iV2o82dDPxmSXg62BO_7-2" value="n1 = numero 1" style="shape=parallelogram;perimeter=parallelogramPerimeter;whiteSpace=wrap;html=1;fixedSize=1;" vertex="1" parent="1">
          <mxGeometry x="310" y="170" width="160" height="60" as="geometry" />
        </mxCell>
        <mxCell id="iV2o82dDPxmSXg62BO_7-3" value="n2 = numero 2" style="shape=parallelogram;perimeter=parallelogramPerimeter;whiteSpace=wrap;html=1;fixedSize=1;" vertex="1" parent="1">
          <mxGeometry x="300" y="270" width="160" height="60" as="geometry" />
        </mxCell>
        <mxCell id="iV2o82dDPxmSXg62BO_7-4" value="n1 = 10&amp;nbsp;&lt;br&gt;n2 = 5&lt;br&gt;n1+n2 = 10+5 = 15" style="rounded=0;whiteSpace=wrap;html=1;" vertex="1" parent="1">
          <mxGeometry x="295" y="380" width="170" height="60" as="geometry" />
        </mxCell>
        <mxCell id="iV2o82dDPxmSXg62BO_7-5" value="15" style="shape=document;whiteSpace=wrap;html=1;boundedLbl=1;" vertex="1" parent="1">
          <mxGeometry x="282.5" y="500" width="195" height="80" as="geometry" />
        </mxCell>
        <mxCell id="iV2o82dDPxmSXg62BO_7-6" value="fim" style="ellipse;whiteSpace=wrap;html=1;" vertex="1" parent="1">
          <mxGeometry x="320" y="650" width="120" height="80" as="geometry" />
        </mxCell>
        <mxCell id="iV2o82dDPxmSXg62BO_7-7" value="" style="endArrow=classic;html=1;rounded=0;" edge="1" parent="1" source="iV2o82dDPxmSXg62BO_7-5">
          <mxGeometry width="50" height="50" relative="1" as="geometry">
            <mxPoint x="380" y="680" as="sourcePoint" />
            <mxPoint x="380" y="640" as="targetPoint" />
          </mxGeometry>
        </mxCell>
        <mxCell id="iV2o82dDPxmSXg62BO_7-8" value="" style="endArrow=classic;html=1;rounded=0;exitX=0.551;exitY=1.056;exitDx=0;exitDy=0;exitPerimeter=0;entryX=0.548;entryY=-0.058;entryDx=0;entryDy=0;entryPerimeter=0;" edge="1" parent="1" source="iV2o82dDPxmSXg62BO_7-4" target="iV2o82dDPxmSXg62BO_7-5">
          <mxGeometry width="50" height="50" relative="1" as="geometry">
            <mxPoint x="100" y="590" as="sourcePoint" />
            <mxPoint x="150" y="540" as="targetPoint" />
          </mxGeometry>
        </mxCell>
        <mxCell id="iV2o82dDPxmSXg62BO_7-10" value="" style="endArrow=classic;html=1;rounded=0;exitX=0.5;exitY=1;exitDx=0;exitDy=0;entryX=0.5;entryY=0;entryDx=0;entryDy=0;" edge="1" parent="1" source="iV2o82dDPxmSXg62BO_7-3" target="iV2o82dDPxmSXg62BO_7-4">
          <mxGeometry width="50" height="50" relative="1" as="geometry">
            <mxPoint x="355" y="380" as="sourcePoint" />
            <mxPoint x="405" y="330" as="targetPoint" />
          </mxGeometry>
        </mxCell>
        <mxCell id="iV2o82dDPxmSXg62BO_7-11" value="" style="endArrow=classic;html=1;rounded=0;exitX=0.5;exitY=1;exitDx=0;exitDy=0;entryX=0.5;entryY=0;entryDx=0;entryDy=0;" edge="1" parent="1" source="iV2o82dDPxmSXg62BO_7-1" target="iV2o82dDPxmSXg62BO_7-2">
          <mxGeometry width="50" height="50" relative="1" as="geometry">
            <mxPoint x="510" y="280" as="sourcePoint" />
            <mxPoint x="560" y="230" as="targetPoint" />
          </mxGeometry>
        </mxCell>
        <mxCell id="iV2o82dDPxmSXg62BO_7-12" value="" style="endArrow=classic;html=1;rounded=0;exitX=0.5;exitY=1;exitDx=0;exitDy=0;entryX=0.55;entryY=0;entryDx=0;entryDy=0;entryPerimeter=0;" edge="1" parent="1" source="iV2o82dDPxmSXg62BO_7-2" target="iV2o82dDPxmSXg62BO_7-3">
          <mxGeometry width="50" height="50" relative="1" as="geometry">
            <mxPoint x="190" y="300" as="sourcePoint" />
            <mxPoint x="240" y="250" as="targetPoint" />
          </mxGeometry>
        </mxCell>
      </root>
    </mxGraphModel>
  </diagram>
</mxfile>
